<svg 
    viewBox="0 0 320 253" 
    fill="none" 
    xmlns="http://www.w3.org/2000/svg">
    <path d="M319.928 53.0223C319.656 51.5689 318.629 50.3367 317.186 49.7314L199.692 0.392831C197.981 -0.326411 195.976 -0.0427853 194.572 1.11886L160 29.6687L125.428 1.11886C124.025 -0.0421067 122.019 -0.326411 120.309 0.392831L2.81349 49.7314C1.37203 50.3367 0.344391 51.5689 0.0716632 53.0223C-0.201065 54.4744 0.314573 55.959 1.44912 56.9863L38.5641 90.5749L17.6375 125.048C16.3423 127.183 17.1408 129.893 19.4244 131.108L39.762 141.938V186.226C39.762 187.815 40.6696 189.284 42.143 190.079L157.611 252.401C158.351 252.8 159.175 253 160.001 253C160.788 253 161.575 252.813 162.289 252.449L162.282 252.459L277.857 190.079C279.331 189.285 280.238 187.816 280.238 186.227V141.938L300.577 131.109C302.861 129.894 303.659 127.184 302.363 125.049L281.437 90.5756L318.551 56.987C319.686 55.959 320.202 54.4744 319.928 53.0223ZM202.627 122.135L164.771 101.676V42.8349L265.229 89.9547L202.627 122.135ZM54.7714 89.9554L155.231 42.8349V101.676L117.373 122.135L54.7714 89.9554ZM13.1364 55.1597L121.412 9.69276L151.561 34.5887L45.4201 84.3751L13.1364 55.1597ZM28.2848 125.576L46.3605 95.7975L152.841 150.531L129.217 179.319L28.2848 125.576ZM155.229 240.83L49.3038 183.658V147.019L128.106 188.979C128.849 189.374 129.662 189.564 130.468 189.564C131.911 189.564 133.328 188.954 134.26 187.818L155.23 162.266L155.229 240.83ZM160 144.047L127.13 127.151L160 109.387L192.87 127.151L160 144.047ZM270.696 183.658L164.771 240.83V162.265L185.741 187.818C186.671 188.953 188.089 189.564 189.533 189.564C190.337 189.564 191.152 189.374 191.895 188.978L270.696 147.018V183.658ZM291.716 125.576L190.784 179.318L167.159 150.53L273.64 95.7968L291.716 125.576ZM274.581 84.3751L168.439 34.5887L198.586 9.69276L306.864 55.1597L274.581 84.3751Z" fill="white"/>
</svg>
